<mxfile host="Electron" agent="Mozilla/5.0 (X11; Linux x86_64) AppleWebKit/537.36 (KHTML, like Gecko) draw.io/28.1.2 Chrome/138.0.7204.243 Electron/37.4.0 Safari/537.36" version="28.1.2">
  <diagram name="Page-1" id="pw1yM4c9U9q3CPbkuXtG">
    <mxGraphModel dx="1276" dy="622" grid="1" gridSize="10" guides="1" tooltips="1" connect="1" arrows="1" fold="1" page="1" pageScale="1" pageWidth="850" pageHeight="1100" math="0" shadow="0">
      <root>
        <mxCell id="0" />
        <mxCell id="1" parent="0" />
        <mxCell id="7N5agTIx9JFiQQaqSErQ-2" value="&lt;font style=&quot;font-size: 24px;&quot;&gt;7&lt;/font&gt;" style="rounded=0;whiteSpace=wrap;html=1;strokeColor=light-dark(#FF0000,#FF0000);" vertex="1" parent="1">
          <mxGeometry x="130" y="340" width="60" height="40" as="geometry" />
        </mxCell>
        <mxCell id="7N5agTIx9JFiQQaqSErQ-3" value="&lt;font style=&quot;font-size: 24px;&quot;&gt;5&lt;/font&gt;" style="rounded=0;whiteSpace=wrap;html=1;strokeColor=light-dark(#FF0000,#FF0000);" vertex="1" parent="1">
          <mxGeometry x="220" y="340" width="60" height="40" as="geometry" />
        </mxCell>
        <mxCell id="7N5agTIx9JFiQQaqSErQ-4" value="&lt;span style=&quot;font-size: 24px;&quot;&gt;8&lt;/span&gt;" style="rounded=0;whiteSpace=wrap;html=1;strokeColor=light-dark(#FF0000,#FF0000);" vertex="1" parent="1">
          <mxGeometry x="310" y="340" width="60" height="40" as="geometry" />
        </mxCell>
        <mxCell id="7N5agTIx9JFiQQaqSErQ-5" value="&lt;font style=&quot;font-size: 24px;&quot;&gt;1&lt;/font&gt;" style="rounded=0;whiteSpace=wrap;html=1;strokeColor=light-dark(#FF0000,#FF0000);" vertex="1" parent="1">
          <mxGeometry x="400" y="340" width="60" height="40" as="geometry" />
        </mxCell>
        <mxCell id="7N5agTIx9JFiQQaqSErQ-6" value="&lt;font style=&quot;font-size: 24px;&quot;&gt;0&lt;/font&gt;" style="rounded=0;whiteSpace=wrap;html=1;strokeColor=light-dark(#FF0000,#FF0000);" vertex="1" parent="1">
          <mxGeometry x="490" y="340" width="60" height="40" as="geometry" />
        </mxCell>
        <mxCell id="7N5agTIx9JFiQQaqSErQ-7" value="&lt;span style=&quot;font-size: 24px;&quot;&gt;11&lt;/span&gt;" style="rounded=0;whiteSpace=wrap;html=1;strokeColor=light-dark(#FF0000,#FF0000);" vertex="1" parent="1">
          <mxGeometry x="580" y="340" width="60" height="40" as="geometry" />
        </mxCell>
        <mxCell id="7N5agTIx9JFiQQaqSErQ-16" value="&lt;font style=&quot;font-size: 24px;&quot;&gt;P&lt;/font&gt;" style="rounded=0;whiteSpace=wrap;html=1;strokeColor=light-dark(#0000FF,#1E90FF);" vertex="1" parent="1">
          <mxGeometry x="130" y="220" width="60" height="40" as="geometry" />
        </mxCell>
        <mxCell id="7N5agTIx9JFiQQaqSErQ-18" value="&lt;font style=&quot;font-size: 24px;&quot;&gt;A&lt;/font&gt;" style="rounded=0;whiteSpace=wrap;html=1;strokeColor=light-dark(#0000FF,#1E90FF);" vertex="1" parent="1">
          <mxGeometry x="220" y="220" width="60" height="40" as="geometry" />
        </mxCell>
        <mxCell id="7N5agTIx9JFiQQaqSErQ-20" value="&lt;span style=&quot;font-size: 24px;&quot;&gt;R&lt;/span&gt;" style="rounded=0;whiteSpace=wrap;html=1;strokeColor=light-dark(#0000FF,#1E90FF);" vertex="1" parent="1">
          <mxGeometry x="310" y="220" width="60" height="40" as="geometry" />
        </mxCell>
        <mxCell id="7N5agTIx9JFiQQaqSErQ-22" value="&lt;font style=&quot;font-size: 24px;&quot;&gt;O&lt;/font&gt;" style="rounded=0;whiteSpace=wrap;html=1;strokeColor=light-dark(#0000FF,#1E90FF);" vertex="1" parent="1">
          <mxGeometry x="400" y="220" width="60" height="40" as="geometry" />
        </mxCell>
        <mxCell id="7N5agTIx9JFiQQaqSErQ-24" value="&lt;font style=&quot;font-size: 24px;&quot;&gt;L&lt;/font&gt;" style="rounded=0;whiteSpace=wrap;html=1;strokeColor=light-dark(#0000FF,#1E90FF);" vertex="1" parent="1">
          <mxGeometry x="490" y="220" width="60" height="40" as="geometry" />
        </mxCell>
        <mxCell id="7N5agTIx9JFiQQaqSErQ-26" value="&lt;span style=&quot;font-size: 24px;&quot;&gt;A&lt;/span&gt;" style="rounded=0;whiteSpace=wrap;html=1;strokeColor=light-dark(#0000FF,#1E90FF);" vertex="1" parent="1">
          <mxGeometry x="580" y="220" width="60" height="40" as="geometry" />
        </mxCell>
        <mxCell id="7N5agTIx9JFiQQaqSErQ-50" style="edgeStyle=orthogonalEdgeStyle;rounded=0;orthogonalLoop=1;jettySize=auto;html=1;entryX=0.5;entryY=0;entryDx=0;entryDy=0;exitX=0.145;exitY=0.855;exitDx=0;exitDy=0;exitPerimeter=0;" edge="1" parent="1" source="7N5agTIx9JFiQQaqSErQ-31" target="7N5agTIx9JFiQQaqSErQ-40">
          <mxGeometry relative="1" as="geometry">
            <mxPoint x="320" y="310" as="sourcePoint" />
            <Array as="points">
              <mxPoint x="300" y="305" />
              <mxPoint x="300" y="410" />
              <mxPoint x="340" y="410" />
            </Array>
          </mxGeometry>
        </mxCell>
        <mxCell id="7N5agTIx9JFiQQaqSErQ-31" value="" style="verticalLabelPosition=bottom;verticalAlign=top;html=1;shape=mxgraph.flowchart.or;rotation=45;strokeWidth=2;" vertex="1" parent="1">
          <mxGeometry x="325" y="290" width="30" height="30" as="geometry" />
        </mxCell>
        <mxCell id="7N5agTIx9JFiQQaqSErQ-38" value="&lt;font style=&quot;font-size: 24px;&quot;&gt;m&lt;/font&gt;" style="rounded=0;whiteSpace=wrap;html=1;strokeColor=light-dark(#009900,#009900);" vertex="1" parent="1">
          <mxGeometry x="130" y="440" width="60" height="40" as="geometry" />
        </mxCell>
        <mxCell id="7N5agTIx9JFiQQaqSErQ-39" value="&lt;font style=&quot;font-size: 24px;&quot;&gt;K&lt;/font&gt;" style="rounded=0;whiteSpace=wrap;html=1;strokeColor=light-dark(#009900,#009900);" vertex="1" parent="1">
          <mxGeometry x="220" y="440" width="60" height="40" as="geometry" />
        </mxCell>
        <mxCell id="7N5agTIx9JFiQQaqSErQ-40" value="&lt;span style=&quot;font-size: 24px;&quot;&gt;7&lt;/span&gt;" style="rounded=0;whiteSpace=wrap;html=1;strokeColor=light-dark(#009900,#009900);" vertex="1" parent="1">
          <mxGeometry x="310" y="440" width="60" height="40" as="geometry" />
        </mxCell>
        <mxCell id="7N5agTIx9JFiQQaqSErQ-41" value="&lt;font style=&quot;font-size: 24px;&quot;&gt;q&lt;/font&gt;" style="rounded=0;whiteSpace=wrap;html=1;strokeColor=light-dark(#009900,#009900);" vertex="1" parent="1">
          <mxGeometry x="400" y="440" width="60" height="40" as="geometry" />
        </mxCell>
        <mxCell id="7N5agTIx9JFiQQaqSErQ-42" value="&lt;font style=&quot;font-size: 24px;&quot;&gt;#&lt;/font&gt;" style="rounded=0;whiteSpace=wrap;html=1;strokeColor=light-dark(#009900,#009900);" vertex="1" parent="1">
          <mxGeometry x="490" y="440" width="60" height="40" as="geometry" />
        </mxCell>
        <mxCell id="7N5agTIx9JFiQQaqSErQ-43" value="&lt;span style=&quot;font-size: 24px;&quot;&gt;9&lt;/span&gt;" style="rounded=0;whiteSpace=wrap;html=1;strokeColor=light-dark(#009900,#009900);" vertex="1" parent="1">
          <mxGeometry x="580" y="440" width="60" height="40" as="geometry" />
        </mxCell>
        <mxCell id="7N5agTIx9JFiQQaqSErQ-51" style="edgeStyle=orthogonalEdgeStyle;rounded=0;orthogonalLoop=1;jettySize=auto;html=1;" edge="1" parent="1" source="7N5agTIx9JFiQQaqSErQ-4">
          <mxGeometry relative="1" as="geometry">
            <mxPoint x="340" y="320" as="targetPoint" />
          </mxGeometry>
        </mxCell>
        <mxCell id="7N5agTIx9JFiQQaqSErQ-52" style="edgeStyle=orthogonalEdgeStyle;rounded=0;orthogonalLoop=1;jettySize=auto;html=1;entryX=0.145;entryY=0.145;entryDx=0;entryDy=0;entryPerimeter=0;" edge="1" parent="1" source="7N5agTIx9JFiQQaqSErQ-20" target="7N5agTIx9JFiQQaqSErQ-31">
          <mxGeometry relative="1" as="geometry">
            <Array as="points">
              <mxPoint x="340" y="280" />
              <mxPoint x="340" y="280" />
            </Array>
          </mxGeometry>
        </mxCell>
        <mxCell id="7N5agTIx9JFiQQaqSErQ-63" style="edgeStyle=orthogonalEdgeStyle;rounded=0;orthogonalLoop=1;jettySize=auto;html=1;entryX=0.5;entryY=0;entryDx=0;entryDy=0;exitX=0.145;exitY=0.855;exitDx=0;exitDy=0;exitPerimeter=0;" edge="1" parent="1" source="7N5agTIx9JFiQQaqSErQ-64">
          <mxGeometry relative="1" as="geometry">
            <mxPoint x="139.97" y="310" as="sourcePoint" />
            <mxPoint x="159.97" y="440" as="targetPoint" />
            <Array as="points">
              <mxPoint x="119.97" y="305" />
              <mxPoint x="119.97" y="410" />
              <mxPoint x="159.97" y="410" />
            </Array>
          </mxGeometry>
        </mxCell>
        <mxCell id="7N5agTIx9JFiQQaqSErQ-64" value="" style="verticalLabelPosition=bottom;verticalAlign=top;html=1;shape=mxgraph.flowchart.or;rotation=45;strokeWidth=2;" vertex="1" parent="1">
          <mxGeometry x="144.97" y="290" width="30" height="30" as="geometry" />
        </mxCell>
        <mxCell id="7N5agTIx9JFiQQaqSErQ-65" style="edgeStyle=orthogonalEdgeStyle;rounded=0;orthogonalLoop=1;jettySize=auto;html=1;" edge="1" parent="1">
          <mxGeometry relative="1" as="geometry">
            <mxPoint x="159.97" y="340" as="sourcePoint" />
            <mxPoint x="159.97" y="320" as="targetPoint" />
          </mxGeometry>
        </mxCell>
        <mxCell id="7N5agTIx9JFiQQaqSErQ-66" style="edgeStyle=orthogonalEdgeStyle;rounded=0;orthogonalLoop=1;jettySize=auto;html=1;entryX=0.145;entryY=0.145;entryDx=0;entryDy=0;entryPerimeter=0;" edge="1" parent="1" target="7N5agTIx9JFiQQaqSErQ-64">
          <mxGeometry relative="1" as="geometry">
            <mxPoint x="159.97" y="260" as="sourcePoint" />
            <Array as="points">
              <mxPoint x="159.97" y="280" />
              <mxPoint x="159.97" y="280" />
            </Array>
          </mxGeometry>
        </mxCell>
        <mxCell id="7N5agTIx9JFiQQaqSErQ-67" style="edgeStyle=orthogonalEdgeStyle;rounded=0;orthogonalLoop=1;jettySize=auto;html=1;entryX=0.5;entryY=0;entryDx=0;entryDy=0;exitX=0.145;exitY=0.855;exitDx=0;exitDy=0;exitPerimeter=0;" edge="1" parent="1" source="7N5agTIx9JFiQQaqSErQ-68">
          <mxGeometry relative="1" as="geometry">
            <mxPoint x="229.97" y="310" as="sourcePoint" />
            <mxPoint x="249.97" y="440" as="targetPoint" />
            <Array as="points">
              <mxPoint x="209.97" y="305" />
              <mxPoint x="209.97" y="410" />
              <mxPoint x="249.97" y="410" />
            </Array>
          </mxGeometry>
        </mxCell>
        <mxCell id="7N5agTIx9JFiQQaqSErQ-68" value="" style="verticalLabelPosition=bottom;verticalAlign=top;html=1;shape=mxgraph.flowchart.or;rotation=45;strokeWidth=2;" vertex="1" parent="1">
          <mxGeometry x="234.97" y="290" width="30" height="30" as="geometry" />
        </mxCell>
        <mxCell id="7N5agTIx9JFiQQaqSErQ-69" style="edgeStyle=orthogonalEdgeStyle;rounded=0;orthogonalLoop=1;jettySize=auto;html=1;" edge="1" parent="1">
          <mxGeometry relative="1" as="geometry">
            <mxPoint x="249.97" y="340" as="sourcePoint" />
            <mxPoint x="249.97" y="320" as="targetPoint" />
          </mxGeometry>
        </mxCell>
        <mxCell id="7N5agTIx9JFiQQaqSErQ-70" style="edgeStyle=orthogonalEdgeStyle;rounded=0;orthogonalLoop=1;jettySize=auto;html=1;entryX=0.145;entryY=0.145;entryDx=0;entryDy=0;entryPerimeter=0;" edge="1" parent="1" target="7N5agTIx9JFiQQaqSErQ-68">
          <mxGeometry relative="1" as="geometry">
            <mxPoint x="249.97" y="260" as="sourcePoint" />
            <Array as="points">
              <mxPoint x="249.97" y="280" />
              <mxPoint x="249.97" y="280" />
            </Array>
          </mxGeometry>
        </mxCell>
        <mxCell id="7N5agTIx9JFiQQaqSErQ-71" style="edgeStyle=orthogonalEdgeStyle;rounded=0;orthogonalLoop=1;jettySize=auto;html=1;entryX=0.5;entryY=0;entryDx=0;entryDy=0;exitX=0.145;exitY=0.855;exitDx=0;exitDy=0;exitPerimeter=0;" edge="1" parent="1" source="7N5agTIx9JFiQQaqSErQ-72">
          <mxGeometry relative="1" as="geometry">
            <mxPoint x="409.97" y="310" as="sourcePoint" />
            <mxPoint x="429.97" y="440" as="targetPoint" />
            <Array as="points">
              <mxPoint x="389.97" y="305" />
              <mxPoint x="389.97" y="410" />
              <mxPoint x="429.97" y="410" />
            </Array>
          </mxGeometry>
        </mxCell>
        <mxCell id="7N5agTIx9JFiQQaqSErQ-72" value="" style="verticalLabelPosition=bottom;verticalAlign=top;html=1;shape=mxgraph.flowchart.or;rotation=45;strokeWidth=2;" vertex="1" parent="1">
          <mxGeometry x="414.97" y="290" width="30" height="30" as="geometry" />
        </mxCell>
        <mxCell id="7N5agTIx9JFiQQaqSErQ-73" style="edgeStyle=orthogonalEdgeStyle;rounded=0;orthogonalLoop=1;jettySize=auto;html=1;" edge="1" parent="1">
          <mxGeometry relative="1" as="geometry">
            <mxPoint x="429.97" y="340" as="sourcePoint" />
            <mxPoint x="429.97" y="320" as="targetPoint" />
          </mxGeometry>
        </mxCell>
        <mxCell id="7N5agTIx9JFiQQaqSErQ-74" style="edgeStyle=orthogonalEdgeStyle;rounded=0;orthogonalLoop=1;jettySize=auto;html=1;entryX=0.145;entryY=0.145;entryDx=0;entryDy=0;entryPerimeter=0;" edge="1" parent="1" target="7N5agTIx9JFiQQaqSErQ-72">
          <mxGeometry relative="1" as="geometry">
            <mxPoint x="429.97" y="260" as="sourcePoint" />
            <Array as="points">
              <mxPoint x="429.97" y="280" />
              <mxPoint x="429.97" y="280" />
            </Array>
          </mxGeometry>
        </mxCell>
        <mxCell id="7N5agTIx9JFiQQaqSErQ-75" style="edgeStyle=orthogonalEdgeStyle;rounded=0;orthogonalLoop=1;jettySize=auto;html=1;entryX=0.5;entryY=0;entryDx=0;entryDy=0;exitX=0.145;exitY=0.855;exitDx=0;exitDy=0;exitPerimeter=0;" edge="1" parent="1" source="7N5agTIx9JFiQQaqSErQ-76">
          <mxGeometry relative="1" as="geometry">
            <mxPoint x="499.97" y="310" as="sourcePoint" />
            <mxPoint x="519.97" y="440" as="targetPoint" />
            <Array as="points">
              <mxPoint x="479.97" y="305" />
              <mxPoint x="479.97" y="410" />
              <mxPoint x="519.97" y="410" />
            </Array>
          </mxGeometry>
        </mxCell>
        <mxCell id="7N5agTIx9JFiQQaqSErQ-76" value="" style="verticalLabelPosition=bottom;verticalAlign=top;html=1;shape=mxgraph.flowchart.or;rotation=45;strokeWidth=2;" vertex="1" parent="1">
          <mxGeometry x="504.97" y="290" width="30" height="30" as="geometry" />
        </mxCell>
        <mxCell id="7N5agTIx9JFiQQaqSErQ-77" style="edgeStyle=orthogonalEdgeStyle;rounded=0;orthogonalLoop=1;jettySize=auto;html=1;" edge="1" parent="1">
          <mxGeometry relative="1" as="geometry">
            <mxPoint x="519.97" y="340" as="sourcePoint" />
            <mxPoint x="519.97" y="320" as="targetPoint" />
          </mxGeometry>
        </mxCell>
        <mxCell id="7N5agTIx9JFiQQaqSErQ-78" style="edgeStyle=orthogonalEdgeStyle;rounded=0;orthogonalLoop=1;jettySize=auto;html=1;entryX=0.145;entryY=0.145;entryDx=0;entryDy=0;entryPerimeter=0;" edge="1" parent="1" target="7N5agTIx9JFiQQaqSErQ-76">
          <mxGeometry relative="1" as="geometry">
            <mxPoint x="519.97" y="260" as="sourcePoint" />
            <Array as="points">
              <mxPoint x="519.97" y="280" />
              <mxPoint x="519.97" y="280" />
            </Array>
          </mxGeometry>
        </mxCell>
        <mxCell id="7N5agTIx9JFiQQaqSErQ-79" style="edgeStyle=orthogonalEdgeStyle;rounded=0;orthogonalLoop=1;jettySize=auto;html=1;entryX=0.5;entryY=0;entryDx=0;entryDy=0;exitX=0.145;exitY=0.855;exitDx=0;exitDy=0;exitPerimeter=0;" edge="1" parent="1" source="7N5agTIx9JFiQQaqSErQ-80">
          <mxGeometry relative="1" as="geometry">
            <mxPoint x="589.97" y="310" as="sourcePoint" />
            <mxPoint x="609.97" y="440" as="targetPoint" />
            <Array as="points">
              <mxPoint x="569.97" y="305" />
              <mxPoint x="569.97" y="410" />
              <mxPoint x="609.97" y="410" />
            </Array>
          </mxGeometry>
        </mxCell>
        <mxCell id="7N5agTIx9JFiQQaqSErQ-80" value="" style="verticalLabelPosition=bottom;verticalAlign=top;html=1;shape=mxgraph.flowchart.or;rotation=45;strokeWidth=2;" vertex="1" parent="1">
          <mxGeometry x="594.97" y="290" width="30" height="30" as="geometry" />
        </mxCell>
        <mxCell id="7N5agTIx9JFiQQaqSErQ-81" style="edgeStyle=orthogonalEdgeStyle;rounded=0;orthogonalLoop=1;jettySize=auto;html=1;" edge="1" parent="1">
          <mxGeometry relative="1" as="geometry">
            <mxPoint x="609.97" y="340" as="sourcePoint" />
            <mxPoint x="609.97" y="320" as="targetPoint" />
          </mxGeometry>
        </mxCell>
        <mxCell id="7N5agTIx9JFiQQaqSErQ-82" style="edgeStyle=orthogonalEdgeStyle;rounded=0;orthogonalLoop=1;jettySize=auto;html=1;entryX=0.145;entryY=0.145;entryDx=0;entryDy=0;entryPerimeter=0;" edge="1" parent="1" target="7N5agTIx9JFiQQaqSErQ-80">
          <mxGeometry relative="1" as="geometry">
            <mxPoint x="609.97" y="260" as="sourcePoint" />
            <Array as="points">
              <mxPoint x="609.97" y="280" />
              <mxPoint x="609.97" y="280" />
            </Array>
          </mxGeometry>
        </mxCell>
      </root>
    </mxGraphModel>
  </diagram>
</mxfile>
